<mxfile host="app.diagrams.net" modified="2022-05-01T18:47:51.328Z" agent="5.0 (Windows NT 10.0; Win64; x64) AppleWebKit/537.36 (KHTML, like Gecko) Chrome/100.0.4896.88 Safari/537.36" etag="aepnVNXY9ONArPC9ASZI" version="17.4.0" type="github">
  <diagram id="F7_ACVxEfOFBpOhAahQX" name="Page-1">
    <mxGraphModel dx="2062" dy="1122" grid="1" gridSize="10" guides="1" tooltips="1" connect="1" arrows="1" fold="1" page="1" pageScale="1" pageWidth="850" pageHeight="1100" math="0" shadow="0">
      <root>
        <mxCell id="0" />
        <mxCell id="1" parent="0" />
        <mxCell id="Ydxv2KESicNCmvpAIff1-5" value="" style="edgeStyle=orthogonalEdgeStyle;rounded=0;orthogonalLoop=1;jettySize=auto;html=1;fontColor=#FFFFFF;" edge="1" parent="1" source="Ydxv2KESicNCmvpAIff1-3" target="Ydxv2KESicNCmvpAIff1-4">
          <mxGeometry relative="1" as="geometry" />
        </mxCell>
        <mxCell id="Ydxv2KESicNCmvpAIff1-3" value="&lt;font color=&quot;#ffffff&quot;&gt;&lt;b&gt;PAGE SPECS&lt;/b&gt;&lt;/font&gt;" style="rounded=1;whiteSpace=wrap;html=1;strokeWidth=1;fillColor=#3333FF;" vertex="1" parent="1">
          <mxGeometry x="130" y="320" width="120" height="60" as="geometry" />
        </mxCell>
        <mxCell id="Ydxv2KESicNCmvpAIff1-7" value="" style="edgeStyle=orthogonalEdgeStyle;rounded=0;orthogonalLoop=1;jettySize=auto;html=1;fontColor=#FFFFFF;" edge="1" parent="1" source="Ydxv2KESicNCmvpAIff1-4" target="Ydxv2KESicNCmvpAIff1-6">
          <mxGeometry relative="1" as="geometry" />
        </mxCell>
        <mxCell id="Ydxv2KESicNCmvpAIff1-4" value="&lt;font color=&quot;#ffffff&quot;&gt;&lt;b&gt;HTML/BOOTSTRAP&lt;/b&gt;&lt;/font&gt;" style="rounded=1;whiteSpace=wrap;html=1;strokeWidth=1;fillColor=#3333FF;" vertex="1" parent="1">
          <mxGeometry x="290" y="320" width="120" height="60" as="geometry" />
        </mxCell>
        <mxCell id="Ydxv2KESicNCmvpAIff1-9" value="" style="edgeStyle=orthogonalEdgeStyle;rounded=0;orthogonalLoop=1;jettySize=auto;html=1;fontColor=#FFFFFF;endArrow=none;endFill=0;" edge="1" parent="1" source="Ydxv2KESicNCmvpAIff1-6" target="Ydxv2KESicNCmvpAIff1-8">
          <mxGeometry relative="1" as="geometry">
            <Array as="points">
              <mxPoint x="520" y="440" />
            </Array>
          </mxGeometry>
        </mxCell>
        <mxCell id="Ydxv2KESicNCmvpAIff1-12" value="" style="edgeStyle=orthogonalEdgeStyle;rounded=0;orthogonalLoop=1;jettySize=auto;html=1;fontColor=#FFFFFF;" edge="1" parent="1" source="Ydxv2KESicNCmvpAIff1-6" target="Ydxv2KESicNCmvpAIff1-11">
          <mxGeometry relative="1" as="geometry" />
        </mxCell>
        <mxCell id="Ydxv2KESicNCmvpAIff1-6" value="&lt;div class=&quot;O0&quot; style=&quot;margin-top: 0pt ; margin-bottom: 0pt ; margin-left: 0.38in ; text-indent: -0.38in&quot;&gt;&lt;b&gt;&lt;font color=&quot;#ffffff&quot;&gt;Flavour Text EN&lt;/font&gt;&lt;/b&gt;&lt;/div&gt;" style="whiteSpace=wrap;html=1;fillColor=#3333FF;rounded=1;strokeWidth=1;" vertex="1" parent="1">
          <mxGeometry x="460" y="320" width="120" height="60" as="geometry" />
        </mxCell>
        <mxCell id="Ydxv2KESicNCmvpAIff1-10" style="edgeStyle=orthogonalEdgeStyle;rounded=0;orthogonalLoop=1;jettySize=auto;html=1;entryX=0.5;entryY=1;entryDx=0;entryDy=0;fontColor=#FFFFFF;" edge="1" parent="1" source="Ydxv2KESicNCmvpAIff1-8" target="Ydxv2KESicNCmvpAIff1-4">
          <mxGeometry relative="1" as="geometry">
            <Array as="points">
              <mxPoint x="350" y="440" />
            </Array>
          </mxGeometry>
        </mxCell>
        <mxCell id="Ydxv2KESicNCmvpAIff1-8" value="&lt;div class=&quot;O0&quot; style=&quot;margin-top: 0pt ; margin-bottom: 0pt ; margin-left: 0.38in ; text-indent: -0.38in&quot;&gt;&lt;b&gt;&lt;font color=&quot;#ffffff&quot;&gt;Flavour Text FR&lt;/font&gt;&lt;/b&gt;&lt;/div&gt;" style="whiteSpace=wrap;html=1;fillColor=#3333FF;rounded=1;strokeWidth=1;" vertex="1" parent="1">
          <mxGeometry x="380" y="400" width="120" height="60" as="geometry" />
        </mxCell>
        <mxCell id="Ydxv2KESicNCmvpAIff1-11" value="&lt;div class=&quot;O0&quot; style=&quot;margin-top: 0pt ; margin-bottom: 0pt ; margin-left: 0.38in ; text-indent: -0.38in&quot;&gt;&lt;b&gt;&lt;font color=&quot;#ffffff&quot;&gt;FINISHED&lt;/font&gt;&lt;/b&gt;&lt;/div&gt;" style="whiteSpace=wrap;html=1;fillColor=#FFB366;rounded=1;strokeWidth=1;strokeColor=#d79b00;" vertex="1" parent="1">
          <mxGeometry x="620" y="320" width="120" height="60" as="geometry" />
        </mxCell>
      </root>
    </mxGraphModel>
  </diagram>
</mxfile>
